<svg xmlns="http://www.w3.org/2000/svg" xmlns:xlink="http://www.w3.org/1999/xlink" version="1.1" x="0px" y="0px" viewBox="0 0 100 125" enable-background="new 0 0 100 100" xml:space="preserve"><g><path d="M14.542,44.896C10.147,50.831,5,58.539,5,62.069c0,2.8,2.267,5.42,4.667,8.195c2.479,2.865,5.283,6.109,5.853,9.834v8.545   c0,0.697,0.565,1.264,1.264,1.264h31.003c0.697,0,1.264-0.566,1.264-1.264c0-15.229-4.416-18.647-13.116-18.956   c1.986-1.965,3.15-4.854,3.15-7.895c0-5.734-4.043-10.398-9.015-10.398c-4.97,0-9.015,4.664-9.015,10.398   c0,2.072,0.541,4.074,1.515,5.76c-4.16-2.752-7.292-5.514-7.292-6.591c0-1.865,1.561-5.525,4.302-10.104   c2.819-0.015,5.11-2.198,5.11-4.881c0-2.69-2.306-4.881-5.139-4.881C17.121,41.097,15.067,42.677,14.542,44.896z M22.163,45.978   c0,1.298-1.173,2.354-2.612,2.354c-0.156,0-0.308-0.018-0.456-0.039c-0.506-0.082-1.008,0.152-1.273,0.589   c-2.313,3.784-5.07,8.952-5.07,12.081c0,3.763,9.386,9.418,12.263,11.062c0.391,0.224,0.872,0.222,1.261-0.004   c0.39-0.227,0.629-0.642,0.629-1.093v-1.644c0-0.378-0.169-0.735-0.46-0.976c-1.793-1.476-2.861-3.91-2.861-6.515   c0-4.341,2.911-7.872,6.487-7.872c3.577,0,6.488,3.531,6.488,7.872c0,2.604-1.07,5.039-2.862,6.515   c-0.291,0.24-0.46,0.598-0.46,0.976v1.644c0,0.698,0.565,1.263,1.264,1.263c7.935,0,11.794,1.532,12.013,15.191H18.046v-7.374   c0-0.061-0.004-0.12-0.012-0.179c-0.644-4.496-3.731-8.067-6.457-11.217c-2.083-2.408-4.051-4.685-4.051-6.542   c0-2.154,3.53-8.243,9.213-15.893c0.12-0.161,0.2-0.349,0.232-0.549c0.188-1.143,1.297-2.005,2.579-2.005   C20.99,43.623,22.163,44.68,22.163,45.978z"/><path d="M81.885,69.688c1.985-1.965,3.15-4.854,3.15-7.895c0-5.734-4.044-10.398-9.014-10.398c-4.972,0-9.015,4.664-9.015,10.398   c0,2.072,0.54,4.073,1.513,5.76c-4.16-2.753-7.291-5.516-7.291-6.591c0-1.865,1.562-5.525,4.301-10.104   c2.82-0.015,5.11-2.198,5.11-4.881c0-2.69-2.305-4.881-5.139-4.881c-2.43,0-4.483,1.58-5.007,3.8   C56.1,50.831,50.95,58.539,50.95,62.069c0,2.804,2.269,5.375,4.669,8.096c2.485,2.819,5.303,6.014,5.856,9.751l0.55,8.806   c0.042,0.667,0.594,1.186,1.262,1.186h30.449c0.698,0,1.264-0.566,1.264-1.264C95,73.415,90.586,69.996,81.885,69.688z    M64.475,87.381l-0.479-7.675c-0.003-0.033-0.005-0.066-0.011-0.1c-0.644-4.506-3.739-8.015-6.47-11.112   c-2.076-2.353-4.037-4.576-4.037-6.425c0-2.154,3.53-8.243,9.214-15.893c0.119-0.161,0.199-0.349,0.231-0.549   c0.189-1.143,1.298-2.005,2.578-2.005c1.44,0,2.612,1.057,2.612,2.354s-1.172,2.354-2.612,2.354c-0.155,0-0.307-0.018-0.455-0.039   c-0.509-0.082-1.008,0.152-1.274,0.589c-2.313,3.784-5.069,8.952-5.069,12.081c0,3.763,9.386,9.418,12.263,11.062   c0.389,0.224,0.871,0.222,1.261-0.004c0.39-0.227,0.629-0.642,0.629-1.093v-1.644c0-0.378-0.169-0.735-0.46-0.976   c-1.791-1.475-2.861-3.91-2.861-6.515c0-4.341,2.91-7.872,6.488-7.872c3.577,0,6.486,3.531,6.486,7.872   c0,2.604-1.069,5.039-2.861,6.515c-0.291,0.24-0.461,0.598-0.461,0.976v1.644c0,0.698,0.566,1.263,1.264,1.263   c7.936,0,11.796,1.532,12.014,15.191H64.475z"/><path d="M45.571,63.554c0.698,0,1.264-0.565,1.264-1.264V39.194h20.881c0.697,0,1.263-0.566,1.263-1.264V11.356   c0-0.697-0.565-1.264-1.263-1.264h-44.29c-0.698,0-1.263,0.566-1.263,1.264v26.574c0,0.697,0.564,1.264,1.263,1.264h20.882V62.29   C44.308,62.988,44.874,63.554,45.571,63.554z M24.689,36.668V12.619h41.763v24.049H24.689z"/></g><text x="0" y="115" fill="#000000" font-size="5px" font-weight="bold" font-family="'Helvetica Neue', Helvetica, Arial-Unicode, Arial, Sans-serif">Created by Tran</text><text x="0" y="120" fill="#000000" font-size="5px" font-weight="bold" font-family="'Helvetica Neue', Helvetica, Arial-Unicode, Arial, Sans-serif">from the Noun Project</text></svg>